<svg version="1.1" id="Layer_1" xmlns="http://www.w3.org/2000/svg" xmlns:xlink="http://www.w3.org/1999/xlink" x="0px" y="0px"
	 width="100%" viewBox="0 0 236 157" enable-background="new 0 0 236 157" xml:space="preserve">
<path fill="#E8FCFE" opacity="1.000000" stroke="none" 
	d="
M155.000000,158.000000 
	C103.333336,158.000000 52.166672,158.000000 1.000007,158.000000 
	C1.000005,105.666672 1.000005,53.333347 1.000002,1.000014 
	C79.666656,1.000009 158.333313,1.000009 236.999969,1.000005 
	C236.999985,53.333317 236.999985,105.666634 237.000000,157.999969 
	C209.833328,158.000000 182.666672,158.000000 155.000000,158.000000 
M49.169846,117.486328 
	C49.446003,117.663353 49.722164,117.840378 50.655064,118.029968 
	C51.092327,118.035393 51.529591,118.040810 52.606247,118.568001 
	C55.086025,118.694435 57.574245,118.735199 60.042530,118.978310 
	C61.610958,119.132790 63.245472,119.360176 64.679024,119.962585 
	C66.734123,120.826187 68.529617,122.643593 70.620384,123.014702 
	C74.673866,123.734200 78.855888,123.729607 83.545456,124.553345 
	C87.388077,125.360504 91.230705,126.167664 95.269264,127.497498 
	C95.513176,127.998764 95.757095,128.500031 95.365387,129.287613 
	C93.308487,130.353287 91.051460,131.158707 89.243881,132.548630 
	C86.828972,134.405548 85.302353,136.734726 89.406281,139.554962 
	C90.271774,139.701691 91.137276,139.848434 92.545265,140.553986 
	C99.034195,141.010361 105.523117,141.466721 112.909256,141.970169 
	C115.605476,141.974899 118.301689,141.979630 121.934601,142.010544 
	C127.962196,141.981323 133.989792,141.952103 140.750214,141.939178 
	C142.168213,141.629486 143.586197,141.319809 145.672455,141.011398 
	C146.117569,140.992416 146.562668,140.973419 147.752594,140.968048 
	C148.496552,140.937164 149.240524,140.906281 150.742203,140.933029 
	C152.476532,139.721451 154.210876,138.509872 155.945221,137.298294 
	C154.295410,135.535126 152.645599,133.771942 150.639450,131.490173 
	C150.092514,130.658096 149.545578,129.826004 149.919617,128.991165 
	C154.648453,129.314804 159.372925,129.760666 164.107269,129.930527 
	C169.783401,130.134201 171.093842,128.853928 172.531982,122.396873 
	C176.324875,122.225845 180.167130,122.370026 183.895325,121.786026 
	C186.987808,121.301620 189.945923,119.959412 193.461731,118.509560 
	C194.617020,118.382423 195.772308,118.255287 197.561707,118.621857 
	C200.627930,118.121941 203.694153,117.622025 206.760376,117.122108 
	C205.196106,113.651070 203.655121,110.169075 202.034515,106.724541 
	C201.856079,106.345291 201.197708,106.211960 200.802063,105.911697 
	C196.445419,102.605507 194.225266,98.343201 193.933578,92.750359 
	C193.555908,85.508644 192.594254,78.297401 192.799088,71.028381 
	C195.125931,71.012001 197.594513,71.465706 199.731918,70.821152 
	C201.267853,70.357979 203.069260,68.621132 203.481888,67.106407 
	C204.059296,64.986877 198.569702,59.759262 196.119614,60.090439 
	C190.393555,60.864418 187.211075,57.608788 184.288818,53.537472 
	C180.284256,47.958305 174.622498,47.420189 169.000549,51.236774 
	C167.232925,52.436764 163.639923,52.871223 161.993057,51.855423 
	C159.764542,50.480865 158.606689,47.370472 156.673553,44.379017 
	C152.569489,34.465160 145.944427,30.177792 135.264008,29.891117 
	C123.078125,29.564032 115.039886,37.486752 105.960083,43.375309 
	C105.611496,42.914791 105.262909,42.454273 105.040039,41.401848 
	C105.092583,40.000622 105.145126,38.599392 105.916992,37.084042 
	C107.181984,35.069832 109.915779,32.415092 109.379890,31.186230 
	C108.498161,29.164333 105.498940,28.065847 103.092789,25.903700 
	C102.767128,23.636074 102.441475,21.368446 102.046974,18.267475 
	C101.433311,16.981329 100.819649,15.695185 100.205978,14.409040 
	C97.410988,16.224474 93.079338,12.597329 90.363220,17.067263 
	C89.242661,17.713432 88.122108,18.359602 86.839134,18.277723 
	C81.183083,15.122519 77.667282,15.312187 72.371399,18.571476 
	C66.913956,17.781061 61.456505,16.990646 55.580486,16.139608 
	C55.916195,18.804592 56.133804,20.532063 56.324741,22.047815 
	C57.674088,22.047815 58.825279,22.047815 59.932140,22.718042 
	C60.544209,23.474516 61.051140,24.740843 61.787876,24.892765 
	C64.084297,25.366306 66.467705,25.418005 68.935669,25.644114 
	C68.935669,28.304079 68.935669,30.522003 68.935669,33.191528 
	C71.090393,32.762066 72.963463,32.388741 75.374504,32.556541 
	C77.155281,33.329567 78.891579,34.593143 80.727348,34.759560 
	C83.417450,35.003422 86.178764,34.461708 88.891899,35.139549 
	C88.639671,39.511513 91.409485,44.710072 85.386002,47.211773 
	C85.883720,48.607506 86.266144,49.679909 85.733864,50.837135 
	C84.817833,50.828651 83.901810,50.820171 82.991127,49.943874 
	C82.994469,48.784744 83.302948,47.518444 82.940918,46.487640 
	C82.043495,43.932484 81.484070,40.697426 79.616005,39.168812 
	C76.377129,36.518482 72.556679,36.978527 69.729126,40.601280 
	C68.224525,42.529026 66.341774,44.334995 65.444992,46.529148 
	C63.314426,51.742039 59.021118,53.752796 54.141895,53.828712 
	C49.457672,53.901600 47.598564,56.478394 46.006187,60.799603 
	C46.898754,61.742420 47.780205,63.483265 48.685726,63.495872 
	C53.777969,63.566788 58.876007,63.221718 63.888901,63.789654 
	C61.217453,75.550957 59.226971,87.621674 49.184917,96.029602 
	C48.988354,96.194183 49.044788,96.660934 48.353989,97.323395 
	C43.195549,103.326805 43.488941,112.853722 48.971478,117.014397 
	C48.971478,117.014397 48.957222,117.032951 49.169846,117.486328 
M191.709183,127.805908 
	C194.204590,125.806656 192.534668,124.344574 190.699112,124.231560 
	C185.865753,123.933968 180.995102,124.160995 176.144745,124.332901 
	C175.589508,124.352577 175.068817,125.347626 174.532120,125.890419 
	C175.280716,126.394989 176.029312,126.899567 177.179504,128.064163 
	C181.789612,128.001556 186.399719,127.938957 191.709183,127.805908 
M85.079605,130.929764 
	C86.956223,130.384720 88.832840,129.839676 91.329338,129.114594 
	C85.284088,125.038193 79.026291,125.051193 74.119888,129.900589 
	C77.480743,130.250946 80.841591,130.601303 85.079605,130.929764 
z"/>
<path fill="#FAFDFD" opacity="1.000000" stroke="none" 
	d="
M156.989517,45.004776 
	C158.606689,47.370472 159.764542,50.480865 161.993057,51.855423 
	C163.639923,52.871223 167.232925,52.436764 169.000549,51.236774 
	C174.622498,47.420189 180.284256,47.958305 184.288818,53.537472 
	C187.211075,57.608788 190.393555,60.864418 196.119614,60.090439 
	C198.569702,59.759262 204.059296,64.986877 203.481888,67.106407 
	C203.069260,68.621132 201.267853,70.357979 199.731918,70.821152 
	C197.594513,71.465706 195.125931,71.012001 191.941956,71.023590 
	C189.735809,70.996208 188.386780,70.973618 186.597351,70.918701 
	C174.819641,70.711174 163.482346,70.535973 151.850342,70.238380 
	C151.348969,70.065529 151.142303,70.015053 150.928772,69.587936 
	C150.123688,66.998726 149.325455,64.786163 148.252258,61.811447 
	C144.578735,65.016586 141.724594,67.506813 138.553833,70.124969 
	C136.548080,70.153381 134.858932,70.053864 132.444458,69.911621 
	C133.760117,67.579010 134.464172,66.330750 135.380798,65.047424 
	C135.593384,65.012344 136.011398,64.907745 136.247650,64.850174 
	C136.783249,64.616356 136.966171,64.357742 137.015015,64.011261 
	C136.997345,64.005775 137.024948,64.036423 137.382111,63.966026 
	C138.836090,60.268009 139.932922,56.640385 141.057587,52.698681 
	C141.087982,51.964825 141.090530,51.545052 141.426605,51.037815 
	C145.819153,46.362347 151.336426,45.509605 156.989517,45.004776 
z"/>
<path fill="#8FCAFA" opacity="1.000000" stroke="none" 
	d="
M156.831543,44.691895 
	C151.336426,45.509605 145.819153,46.362347 141.215546,50.748337 
	C134.734283,50.030457 128.765762,49.744400 122.870834,48.927330 
	C117.996208,48.251686 112.192528,50.815868 108.520561,45.190769 
	C108.252312,44.779842 106.948616,45.044830 106.111023,44.721344 
	C106.130737,44.267380 106.165756,44.087654 106.200768,43.907928 
	C115.039886,37.486752 123.078125,29.564032 135.264008,29.891117 
	C145.944427,30.177792 152.569489,34.465160 156.831543,44.691895 
z"/>
<path fill="#B3F2EA" opacity="1.000000" stroke="none" 
	d="
M148.998642,128.993927 
	C149.545578,129.826004 150.092514,130.658096 150.856567,132.096069 
	C152.012390,134.195572 152.951096,135.689194 153.698608,136.878586 
	C152.301880,138.381638 151.143188,139.628525 149.984482,140.875397 
	C149.240524,140.906281 148.496552,140.937164 147.334778,140.671356 
	C146.279388,140.586487 145.641785,140.798309 145.004196,141.010132 
	C143.586197,141.319809 142.168213,141.629486 140.387878,141.575989 
	C140.866272,139.794479 141.706970,138.376175 142.815399,136.506210 
	C141.396606,136.310928 140.220428,136.149063 138.625687,135.930771 
	C132.496017,135.600021 126.784943,135.325684 120.682053,135.038635 
	C119.296066,135.375702 118.301903,135.725479 117.307739,136.075256 
	C117.802521,136.979523 118.254128,137.911011 118.802986,138.781174 
	C119.493019,139.875137 120.262634,140.918915 120.997910,141.984344 
	C118.301689,141.979630 115.605476,141.974899 112.359634,141.572479 
	C105.207596,140.781570 98.605186,140.388367 92.002769,139.995163 
	C91.137276,139.848434 90.271774,139.701691 89.199638,138.918121 
	C90.439949,136.314987 91.873611,134.338730 93.338905,132.386215 
	C94.200302,131.238419 95.111969,130.128342 96.001022,129.001297 
	C95.757095,128.500031 95.513176,127.998764 95.555130,127.191467 
	C97.725960,126.812561 99.611298,126.670433 101.495804,126.680565 
	C106.074646,126.705200 110.834793,128.275833 115.335114,125.003029 
	C116.112076,125.002960 116.556053,125.003242 117.067871,125.354782 
	C121.032318,128.306244 124.986244,128.461365 129.335236,125.985962 
	C130.113037,125.987526 130.557495,125.987305 131.144470,126.309044 
	C132.740479,130.386185 135.426514,128.596252 137.372406,127.609718 
	C141.691559,125.419975 145.386658,126.339546 148.998642,128.993927 
z"/>
<path fill="#A5DCF4" opacity="1.000000" stroke="none" 
	d="
M131.001953,125.987091 
	C130.557495,125.987305 130.113037,125.987526 129.240112,125.598457 
	C124.874428,125.140625 120.937233,125.072075 117.000031,125.003525 
	C116.556053,125.003242 116.112076,125.002960 115.113983,124.752655 
	C108.386810,124.064590 102.218925,123.409721 96.038933,123.262367 
	C91.696030,123.158813 87.336662,123.746216 82.984642,124.025070 
	C78.855888,123.729607 74.673866,123.734200 70.620384,123.014702 
	C68.529617,122.643593 66.734123,120.826187 64.679024,119.962585 
	C63.245472,119.360176 61.610958,119.132790 60.042530,118.978310 
	C57.574245,118.735199 55.086025,118.694435 52.327930,118.266724 
	C52.049614,117.965454 52.131405,117.886497 52.583298,117.913864 
	C63.479092,117.936470 73.922997,117.931709 84.805534,117.935822 
	C89.110573,117.914589 92.976974,117.884468 97.113914,118.157974 
	C99.256981,118.640289 101.129501,118.818977 103.328590,119.146545 
	C108.771080,119.211967 113.887001,119.128532 119.447243,119.039268 
	C121.988037,119.009384 124.084526,118.985336 126.497986,119.103294 
	C130.564774,119.160835 134.314575,119.076363 138.298813,118.973358 
	C138.533234,118.954826 139.003189,118.973618 139.053314,119.311058 
	C139.727097,120.048447 140.319061,120.730728 140.979324,120.804878 
	C147.978699,121.590836 154.988922,122.280075 161.901459,123.389809 
	C156.161621,124.005020 150.507782,124.099373 144.874146,124.487282 
	C140.237640,124.806526 135.625107,125.473961 131.001953,125.987091 
z"/>
<path fill="#FBFEFC" opacity="1.000000" stroke="none" 
	d="
M46.008545,60.000381 
	C47.598564,56.478394 49.457672,53.901600 54.141895,53.828712 
	C59.021118,53.752796 63.314426,51.742039 65.444992,46.529148 
	C66.341774,44.334995 68.224525,42.529026 69.729126,40.601280 
	C72.556679,36.978527 76.377129,36.518482 79.616005,39.168812 
	C81.484070,40.697426 82.043495,43.932484 82.940918,46.487640 
	C83.302948,47.518444 82.994469,48.784744 82.674515,50.472683 
	C81.924362,51.056725 81.490822,51.111958 80.885910,50.904797 
	C80.093483,50.917576 79.472427,51.192749 78.702652,51.429497 
	C78.553925,51.391075 78.363693,51.149849 77.928558,51.097893 
	C75.341728,51.033710 72.776062,50.390450 72.936668,54.305988 
	C72.611198,55.416180 72.346466,56.215851 71.772774,57.028652 
	C70.970604,57.362740 70.477386,57.683693 69.516586,58.004303 
	C61.352936,58.485756 53.448418,56.561878 46.008545,60.000381 
z"/>
<path fill="#DEF0F4" opacity="1.000000" stroke="none" 
	d="
M74.836540,32.015411 
	C72.963463,32.388741 71.090393,32.762066 68.935669,33.191528 
	C68.935669,30.522003 68.935669,28.304079 68.935669,25.644114 
	C66.467705,25.418005 64.084297,25.366306 61.787876,24.892765 
	C61.051140,24.740843 60.544209,23.474516 60.298988,22.463856 
	C63.299221,22.132774 66.002396,22.389280 68.540634,21.857927 
	C70.144966,21.522079 71.503113,20.010218 72.971680,19.025833 
	C77.667282,15.312187 81.183083,15.122519 86.930626,18.977135 
	C87.962387,21.127497 88.902657,22.578447 89.899719,24.363094 
	C90.041870,25.139965 90.127220,25.583139 90.124924,26.246189 
	C90.037285,26.466061 89.939034,26.929140 89.928711,26.975426 
	C89.918381,27.021711 89.964760,27.104446 89.626556,27.075550 
	C88.487343,27.313379 87.686333,27.580103 86.876282,27.809036 
	C86.867226,27.771246 86.789719,27.765514 86.429054,27.789497 
	C83.764778,28.435978 81.461166,29.058474 79.004501,29.418713 
	C77.898354,28.434053 76.945259,27.711649 75.681412,26.921051 
	C74.948135,26.816135 74.525612,26.779415 73.865608,26.558216 
	C73.434250,27.247446 73.240372,28.121153 73.143394,29.253273 
	C73.740501,30.038799 74.240707,30.565912 74.776848,31.322376 
	C74.812775,31.551725 74.836540,32.015415 74.836540,32.015411 
z"/>
<path fill="#7CE1E9" opacity="1.000000" stroke="none" 
	d="
M196.927597,118.128143 
	C195.772308,118.255287 194.617020,118.382423 192.756073,118.750641 
	C188.666611,118.952187 185.282806,118.912659 181.872223,118.491180 
	C181.555115,115.736572 181.264801,113.363914 181.150116,110.858597 
	C181.555191,110.539490 181.753403,110.324310 182.330627,110.047516 
	C186.854370,108.784027 184.234955,105.310387 185.443726,103.070862 
	C188.552261,103.753036 191.297684,104.355446 194.022156,104.979080 
	C194.001221,105.000305 194.040222,104.957230 194.062546,105.304230 
	C195.082626,106.423233 196.080399,107.195236 197.391541,107.994995 
	C198.475067,108.662979 199.245239,109.303223 200.119843,110.175415 
	C200.491394,110.609024 200.758469,110.810669 201.037750,111.235352 
	C201.049957,111.458389 201.035110,111.904892 201.128860,112.144043 
	C201.488022,112.590981 201.753418,112.798752 202.166687,113.338837 
	C204.155853,119.552628 199.311264,117.353180 196.927597,118.128143 
z"/>
<path fill="#ADEAF0" opacity="1.000000" stroke="none" 
	d="
M197.244659,118.375000 
	C199.311264,117.353180 204.155853,119.552628 202.063354,113.106750 
	C201.553116,112.329872 201.294113,112.117386 201.035110,111.904892 
	C201.035110,111.904892 201.049957,111.458389 200.930786,111.005035 
	C200.546204,110.348938 200.280792,110.146202 200.015396,109.943466 
	C199.245239,109.303223 198.475067,108.662979 197.333725,107.661469 
	C195.988434,106.519218 195.014328,105.738228 194.040222,104.957230 
	C194.040222,104.957230 194.001221,105.000305 193.984589,104.655457 
	C192.990250,103.201576 192.012527,102.092552 191.005280,100.688774 
	C190.662140,99.920448 190.348541,99.446877 189.987640,98.578278 
	C189.642960,95.785385 189.345551,93.387520 189.215500,90.611389 
	C191.000854,83.513901 189.937805,77.120758 187.037766,70.951027 
	C188.386780,70.973618 189.735809,70.996208 191.484421,71.045914 
	C192.594254,78.297401 193.555908,85.508644 193.933578,92.750359 
	C194.225266,98.343201 196.445419,102.605507 200.802063,105.911697 
	C201.197708,106.211960 201.856079,106.345291 202.034515,106.724541 
	C203.655121,110.169075 205.196106,113.651070 206.760376,117.122108 
	C203.694153,117.622025 200.627930,118.121941 197.244659,118.375000 
z"/>
<path fill="#3ACCD4" opacity="1.000000" stroke="none" 
	d="
M72.081734,57.015518 
	C72.346466,56.215851 72.611198,55.416180 73.274475,54.244080 
	C75.236572,52.964382 76.800133,52.057117 78.363693,51.149849 
	C78.363693,51.149849 78.553925,51.391075 78.911064,51.594090 
	C79.864563,51.587132 80.460922,51.377163 81.057281,51.167191 
	C81.490822,51.111958 81.924362,51.056725 82.671844,50.906593 
	C83.901810,50.820171 84.817833,50.828651 86.427216,50.825081 
	C87.451607,50.777008 87.782646,50.740993 88.292221,50.900978 
	C88.663177,51.389523 88.855591,51.682060 88.683990,52.134720 
	C86.049660,52.738422 83.779350,53.182003 81.989975,53.531616 
	C83.099533,55.187035 84.044464,56.596840 84.742706,58.115417 
	C84.010284,58.736507 83.524567,59.248821 82.716637,59.859962 
	C82.224815,61.024380 82.055206,62.089970 81.900635,63.599598 
	C81.931541,67.557640 81.947426,71.071640 81.608055,74.669556 
	C79.863632,75.212486 78.474472,75.671516 76.921127,75.784653 
	C75.540733,70.619598 74.324532,65.800423 73.046234,60.644409 
	C72.683342,59.210213 72.382538,58.112865 72.081734,57.015518 
z"/>
<path fill="#9CCEF5" opacity="1.000000" stroke="none" 
	d="
M181.899017,118.873131 
	C185.282806,118.912659 188.666611,118.952187 192.506989,118.994461 
	C189.945923,119.959412 186.987808,121.301620 183.895325,121.786026 
	C180.167130,122.370026 176.324875,122.225845 171.808182,122.681633 
	C168.054977,122.976242 165.025574,122.986099 161.996170,122.995956 
	C154.988922,122.280075 147.978699,121.590836 140.979324,120.804878 
	C140.319061,120.730728 139.727097,120.048447 139.399963,119.283096 
	C140.513779,118.296265 141.331055,117.674835 142.462555,117.101654 
	C144.187134,117.428551 145.597458,117.707199 147.446472,117.989670 
	C153.928223,117.990654 159.971268,117.987808 166.472382,117.990280 
	C170.584717,117.971397 174.238953,117.947220 178.147568,118.176697 
	C179.567627,118.577942 180.733322,118.725533 181.899017,118.873131 
z"/>
<path fill="#B0E7EF" opacity="1.000000" stroke="none" 
	d="
M161.901459,123.389809 
	C165.025574,122.986099 168.054977,122.976242 171.484299,122.957581 
	C171.093842,128.853928 169.783401,130.134201 164.107269,129.930527 
	C159.372925,129.760666 154.648453,129.314804 149.459137,128.992554 
	C145.386658,126.339546 141.691559,125.419975 137.372406,127.609718 
	C135.426514,128.596252 132.740479,130.386185 131.144470,126.309036 
	C135.625107,125.473961 140.237640,124.806526 144.874146,124.487282 
	C150.507782,124.099373 156.161621,124.005020 161.901459,123.389809 
z"/>
<path fill="#7770D5" opacity="1.000000" stroke="none" 
	d="
M88.113686,50.704979 
	C87.782646,50.740993 87.451607,50.777008 86.884567,50.782669 
	C86.266144,49.679909 85.883720,48.607506 85.386002,47.211773 
	C91.409485,44.710072 88.639671,39.511513 88.791527,34.335197 
	C88.057343,31.609072 87.423531,29.687292 86.789719,27.765514 
	C86.789719,27.765514 86.867226,27.771246 87.214920,27.857210 
	C88.363335,27.663599 89.164047,27.384024 89.964760,27.104446 
	C89.964760,27.104446 89.918381,27.021711 90.195526,27.000139 
	C90.648735,26.949013 90.824806,26.919456 91.296249,26.940445 
	C92.071060,27.288399 92.550499,27.585812 92.933380,28.128628 
	C92.562874,28.585144 92.288925,28.796257 91.682510,29.009785 
	C90.721672,29.366049 90.093307,29.719900 89.464943,30.073750 
	C89.977524,30.381130 90.490105,30.688513 91.146072,31.304235 
	C93.847733,35.076645 96.405998,38.540714 98.661804,42.159512 
	C96.116249,44.559143 93.267159,46.696217 96.986656,50.313034 
	C96.986092,51.036701 96.990128,51.450237 96.661514,51.890282 
	C95.887009,51.871418 95.445137,51.826042 94.912201,51.439236 
	C92.585312,50.966862 90.349503,50.835922 88.113686,50.704979 
z"/>
<path fill="#ADEAF0" opacity="1.000000" stroke="none" 
	d="
M48.983185,96.986702 
	C49.044788,96.660934 48.988354,96.194183 49.184917,96.029602 
	C59.226971,87.621674 61.217453,75.550957 64.336349,63.391518 
	C65.862717,63.020035 66.941643,63.046688 67.967834,63.439690 
	C67.287079,66.203392 66.659065,68.600746 65.971039,71.388641 
	C63.792255,77.445679 61.792461,83.161217 59.488819,88.751541 
	C58.703823,90.656517 57.154541,92.246552 55.694378,94.107193 
	C54.955208,94.820312 54.476135,95.406731 53.740269,96.100708 
	C52.996647,96.475739 52.509823,96.743195 51.649834,97.007843 
	C50.531704,97.017296 49.786743,97.029541 49.027420,97.027809 
	C49.013058,97.013824 48.983185,96.986702 48.983185,96.986702 
z"/>
<path fill="#7A6FCE" opacity="1.000000" stroke="none" 
	d="
M103.392433,26.578064 
	C105.498940,28.065847 108.498161,29.164333 109.379890,31.186230 
	C109.915779,32.415092 107.181984,35.069832 105.336716,36.855415 
	C95.462059,36.019970 94.126984,34.960804 94.385597,28.034641 
	C97.926414,29.231554 100.857941,29.126581 103.392433,26.578064 
z"/>
<path fill="#F9F8F0" opacity="1.000000" stroke="none" 
	d="
M68.020569,63.073341 
	C66.941643,63.046688 65.862717,63.020035 64.377930,63.005966 
	C58.876007,63.221718 53.777969,63.566788 48.685726,63.495872 
	C47.780205,63.483265 46.898754,61.742420 46.007366,60.399994 
	C53.448418,56.561878 61.352936,58.485756 69.545258,58.311523 
	C70.025063,60.003418 70.008606,61.387749 69.667267,62.846367 
	C68.901787,62.971554 68.461174,63.022446 68.020569,63.073341 
z"/>
<path fill="#BEF1EB" opacity="1.000000" stroke="none" 
	d="
M121.466255,141.997437 
	C120.262634,140.918915 119.493019,139.875137 118.802986,138.781174 
	C118.254128,137.911011 117.802521,136.979523 117.307739,136.075256 
	C118.301903,135.725479 119.296066,135.375702 120.679977,135.445557 
	C121.334648,136.435684 121.584618,137.495880 121.866699,137.504471 
	C127.646812,137.680954 133.621735,139.803253 139.044266,135.987183 
	C140.220428,136.149063 141.396606,136.310928 142.815399,136.506210 
	C141.706970,138.376175 140.866272,139.794479 140.021469,141.567841 
	C133.989792,141.952103 127.962196,141.981323 121.466255,141.997437 
z"/>
<path fill="#B0E7EF" opacity="1.000000" stroke="none" 
	d="
M83.265045,124.289207 
	C87.336662,123.746216 91.696030,123.158813 96.038933,123.262367 
	C102.218925,123.409721 108.386810,124.064590 114.781006,124.753014 
	C110.834793,128.275833 106.074646,126.705200 101.495804,126.680565 
	C99.611298,126.670433 97.725960,126.812561 95.457169,126.930130 
	C91.230705,126.167664 87.388077,125.360504 83.265045,124.289207 
z"/>
<path fill="#C6E2A5" opacity="1.000000" stroke="none" 
	d="
M72.671539,18.798656 
	C71.503113,20.010218 70.144966,21.522079 68.540634,21.857927 
	C66.002396,22.389280 63.299221,22.132774 60.321156,22.128742 
	C58.825279,22.047815 57.674088,22.047815 56.324741,22.047815 
	C56.133804,20.532063 55.916195,18.804592 55.580486,16.139608 
	C61.456505,16.990646 66.913956,17.781061 72.671539,18.798656 
z"/>
<path fill="#D9A988" opacity="1.000000" stroke="none" 
	d="
M103.242615,26.240881 
	C100.857941,29.126581 97.926414,29.231554 94.146194,27.971039 
	C93.518188,27.963684 93.029945,27.883224 93.029945,27.883224 
	C92.550499,27.585812 92.071060,27.288399 91.205826,26.761438 
	C90.668137,26.302576 90.465645,26.134050 90.212563,26.026316 
	C90.127220,25.583139 90.041870,25.139965 90.288528,24.356403 
	C91.392830,24.018860 92.165138,24.021700 93.266228,24.182188 
	C94.865021,24.553841 96.135025,24.767847 98.005020,25.082958 
	C96.690834,23.157631 95.894165,21.990480 95.483856,20.860332 
	C97.952080,20.298500 100.033943,19.699661 102.115814,19.100821 
	C102.441475,21.368446 102.767128,23.636074 103.242615,26.240881 
z"/>
<path fill="#5745C7" opacity="1.000000" stroke="none" 
	d="
M92.933380,28.128628 
	C93.029945,27.883224 93.518188,27.963684 93.757584,28.027287 
	C94.126984,34.960804 95.462059,36.019970 104.977051,36.912479 
	C105.145126,38.599392 105.092583,40.000622 104.686386,41.872387 
	C102.897987,42.889160 101.463234,43.435398 100.001717,43.683235 
	C99.638054,42.924816 99.301163,42.464802 98.964264,42.004784 
	C96.405998,38.540714 93.847733,35.076645 91.389084,31.137737 
	C91.664124,30.111057 91.839554,29.559214 92.014984,29.007372 
	C92.288925,28.796257 92.562874,28.585144 92.933380,28.128628 
z"/>
<path fill="#9ADED7" opacity="1.000000" stroke="none" 
	d="
M84.641022,130.940704 
	C80.841591,130.601303 77.480743,130.250946 74.119888,129.900589 
	C79.026291,125.051193 85.284088,125.038193 91.329338,129.114594 
	C88.832840,129.839676 86.956223,130.384720 84.641022,130.940704 
z"/>
<path fill="#7B78C5" opacity="1.000000" stroke="none" 
	d="
M86.429054,27.789497 
	C87.423531,29.687292 88.057343,31.609072 88.800446,33.892799 
	C86.178764,34.461708 83.417450,35.003422 80.727348,34.759560 
	C78.891579,34.593143 77.155281,33.329567 75.105522,32.285980 
	C74.836540,32.015415 74.812775,31.551725 75.152016,31.287399 
	C75.991974,31.011688 76.492691,31.000301 77.191635,31.217926 
	C77.979088,30.858284 78.568321,30.269625 79.157555,29.680967 
	C81.461166,29.058474 83.764778,28.435978 86.429054,27.789497 
z"/>
<path fill="#201C24" opacity="1.000000" stroke="none" 
	d="
M102.081390,18.684147 
	C100.033943,19.699661 97.952080,20.298500 95.426453,20.649256 
	C94.982697,20.401173 94.777893,20.014326 94.806046,19.681580 
	C93.561432,18.567142 92.288658,17.785456 91.015884,17.003765 
	C93.079338,12.597329 97.410988,16.224474 100.205978,14.409039 
	C100.819649,15.695185 101.433311,16.981329 102.081390,18.684147 
z"/>
<path fill="#ADEAF0" opacity="1.000000" stroke="none" 
	d="
M48.961174,117.039635 
	C43.488941,112.853722 43.195549,103.326805 48.668587,97.155045 
	C48.983185,96.986702 49.013058,97.013824 49.016724,97.360451 
	C49.349972,98.474014 49.679558,99.240959 50.004265,100.342407 
	C49.673016,101.452919 49.346645,102.228905 48.682533,103.190956 
	C46.745117,106.389328 45.383728,109.383820 48.998276,112.245560 
	C49.006252,112.484406 49.022362,112.962105 49.014030,113.368958 
	C48.990860,114.863754 48.976017,115.951698 48.961174,117.039635 
z"/>
<path fill="#89DCDC" opacity="1.000000" stroke="none" 
	d="
M191.009827,127.876358 
	C186.399719,127.938957 181.789612,128.001556 177.184387,127.347427 
	C181.751358,123.758797 188.165878,124.336952 191.009827,127.876358 
z"/>
<path fill="#5C67C7" opacity="1.000000" stroke="none" 
	d="
M100.028481,43.981636 
	C101.463234,43.435398 102.897987,42.889160 104.623535,42.168343 
	C105.262909,42.454273 105.611496,42.914791 106.080429,43.641617 
	C106.165756,44.087654 106.130737,44.267380 106.029922,45.070438 
	C105.290154,47.445793 104.616173,49.197819 103.560867,51.014473 
	C101.117752,51.340652 99.055954,51.602211 96.994164,51.863770 
	C96.990128,51.450237 96.986092,51.036701 97.384445,50.297867 
	C98.534042,47.975586 99.281265,45.978611 100.028481,43.981636 
z"/>
<path fill="#91CDDA" opacity="1.000000" stroke="none" 
	d="
M191.359497,127.841141 
	C188.165878,124.336952 181.751358,123.758797 176.983597,127.017410 
	C176.029312,126.899567 175.280716,126.394989 174.532120,125.890419 
	C175.068817,125.347626 175.589508,124.352577 176.144745,124.332901 
	C180.995102,124.160995 185.865753,123.933968 190.699112,124.231560 
	C192.534668,124.344574 194.204590,125.806656 191.359497,127.841141 
z"/>
<path fill="#BEF1EB" opacity="1.000000" stroke="none" 
	d="
M92.274017,140.274567 
	C98.605186,140.388367 105.207596,140.781570 111.911026,141.548920 
	C105.523117,141.466721 99.034195,141.010361 92.274017,140.274567 
z"/>
<path fill="#D7B89E" opacity="1.000000" stroke="none" 
	d="
M90.689552,17.035515 
	C92.288658,17.785456 93.561432,18.567142 94.463112,19.714912 
	C90.473381,20.448736 92.649658,22.513092 92.937439,24.024542 
	C92.165138,24.021700 91.392830,24.018860 90.231728,24.022709 
	C88.902657,22.578447 87.962387,21.127497 87.011833,19.341160 
	C88.122108,18.359602 89.242661,17.713432 90.689552,17.035515 
z"/>
<path fill="#BEF1EB" opacity="1.000000" stroke="none" 
	d="
M95.683205,129.144455 
	C95.111969,130.128342 94.200302,131.238419 93.338905,132.386215 
	C91.873611,134.338730 90.439949,136.314987 88.980347,138.667465 
	C85.302353,136.734726 86.828972,134.405548 89.243881,132.548630 
	C91.051460,131.158707 93.308487,130.353287 95.683205,129.144455 
z"/>
<path fill="#BEF1EB" opacity="1.000000" stroke="none" 
	d="
M150.363342,140.904205 
	C151.143188,139.628525 152.301880,138.381638 153.698608,136.878586 
	C152.951096,135.689194 152.012390,134.195572 151.034744,132.355362 
	C152.645599,133.771942 154.295410,135.535126 155.945221,137.298294 
	C154.210876,138.509872 152.476532,139.721451 150.363342,140.904205 
z"/>
<path fill="#A2EEF1" opacity="1.000000" stroke="none" 
	d="
M48.966324,117.027016 
	C48.976017,115.951698 48.990860,114.863754 49.307350,113.528610 
	C50.449799,114.816437 51.290604,116.351463 52.131405,117.886497 
	C52.131405,117.886497 52.049614,117.965454 52.008232,118.005844 
	C51.529591,118.040810 51.092327,118.035393 50.213223,117.802536 
	C49.563824,117.298538 49.292439,117.117821 48.957222,117.032951 
	C48.957222,117.032951 48.971478,117.014397 48.966324,117.027016 
z"/>
<path fill="#BEF1EB" opacity="1.000000" stroke="none" 
	d="
M145.338318,141.010773 
	C145.641785,140.798309 146.279388,140.586487 146.962372,140.664551 
	C146.562668,140.973419 146.117569,140.992416 145.338318,141.010773 
z"/>
<path fill="#ADEAF0" opacity="1.000000" stroke="none" 
	d="
M49.063534,117.259644 
	C49.292439,117.117821 49.563824,117.298538 49.884853,117.796249 
	C49.722164,117.840378 49.446003,117.663353 49.063534,117.259644 
z"/>
<path fill="#82DCE9" opacity="1.000000" stroke="none" 
	d="
M186.597351,70.918701 
	C189.937805,77.120758 191.000854,83.513901 188.853424,90.674706 
	C187.198776,94.443970 186.073532,97.771637 184.498077,101.075958 
	C182.840652,101.048615 181.633469,101.044624 180.172440,101.136108 
	C179.378601,101.243004 178.838593,101.254417 178.222229,100.847519 
	C177.800003,98.276245 177.454163,96.123291 177.356369,93.708321 
	C177.082642,91.293549 176.560883,89.140785 175.875031,86.643677 
	C175.475723,84.543915 175.240494,82.788513 175.338699,80.849869 
	C178.685806,79.784584 181.699493,78.902550 184.726273,78.016678 
	C183.048431,74.445358 173.044998,70.592636 169.995148,72.414276 
	C169.370743,72.787231 169.312897,74.108742 168.621613,75.073502 
	C166.499908,75.438065 164.750488,75.722137 163.153091,75.699219 
	C163.755142,74.463654 164.205170,73.535103 165.286346,71.304306 
	C161.405655,72.260437 158.478760,72.395599 156.198730,73.679520 
	C152.706985,75.645782 152.149048,74.092033 152.034851,70.970566 
	C152.074081,70.767761 152.145065,70.360771 152.145065,70.360764 
	C163.482346,70.535973 174.819641,70.711174 186.597351,70.918701 
z"/>
<path fill="#82D3F3" opacity="1.000000" stroke="none" 
	d="
M136.011398,64.907745 
	C136.011398,64.907745 135.593384,65.012344 134.983994,65.017448 
	C133.584946,65.016571 132.795303,65.010590 131.907379,64.610794 
	C127.157188,63.811768 122.509827,63.167496 117.851868,63.078651 
	C114.265862,63.010262 110.903984,63.204060 109.702667,58.321102 
	C108.709145,64.589500 108.461349,70.567215 107.926674,76.519157 
	C107.788551,78.056763 106.750031,79.513474 106.086044,80.546356 
	C105.700394,75.059349 105.353813,70.033325 105.016426,64.659622 
	C105.346840,63.222389 105.668045,62.132839 105.893188,60.824638 
	C105.616982,60.330231 105.372818,60.134235 105.043388,59.588814 
	C105.013184,57.440945 105.004234,55.722263 105.388405,54.001877 
	C107.238937,53.827198 108.696342,53.654224 110.292976,53.464725 
	C110.806122,54.565098 111.330635,55.689869 111.250031,55.517014 
	C117.819962,56.244156 123.420280,56.922607 129.035583,57.437737 
	C130.207657,57.545258 131.453537,57.120838 132.632996,56.816139 
	C134.770737,56.263882 136.884079,55.617294 138.898178,55.301987 
	C138.200806,58.408066 137.612869,61.222244 137.024948,64.036423 
	C137.024948,64.036423 136.997345,64.005775 136.796661,64.098816 
	C136.320984,64.365059 136.126129,64.603691 136.011398,64.907745 
z"/>
<path fill="#85CEF7" opacity="1.000000" stroke="none" 
	d="
M139.007614,55.010086 
	C136.884079,55.617294 134.770737,56.263882 132.632996,56.816139 
	C131.453537,57.120838 130.207657,57.545258 129.035583,57.437737 
	C123.420280,56.922607 117.819962,56.244156 111.250031,55.517014 
	C111.330635,55.689869 110.806122,54.565098 110.292976,53.464725 
	C108.696342,53.654224 107.238937,53.827198 105.252930,53.706402 
	C104.463608,52.591702 104.202896,51.770775 103.942184,50.949844 
	C104.616173,49.197819 105.290154,47.445793 106.045227,45.344673 
	C106.948616,45.044830 108.252312,44.779842 108.520561,45.190769 
	C112.192528,50.815868 117.996208,48.251686 122.870834,48.927330 
	C128.765762,49.744400 134.734283,50.030457 140.882004,50.835800 
	C141.090530,51.545052 141.087982,51.964825 140.810364,52.848907 
	C140.026077,53.878838 139.516846,54.444466 139.007614,55.010086 
z"/>
<path fill="#91D9E1" opacity="1.000000" stroke="none" 
	d="
M132.005646,65.004608 
	C132.795303,65.010590 133.584946,65.016571 134.771423,65.052521 
	C134.464172,66.330750 133.760117,67.579010 132.444458,69.911621 
	C134.858932,70.053864 136.548080,70.153381 138.689102,70.103981 
	C139.140976,69.955070 139.407227,70.018768 139.323685,70.277252 
	C139.474121,71.026764 139.708099,71.517784 139.574677,72.060181 
	C138.500305,72.890770 137.607697,73.570023 137.123520,74.469208 
	C135.981064,76.590904 135.033112,78.817345 133.970108,81.339081 
	C134.272324,83.460945 134.610901,85.245140 134.554825,87.012802 
	C119.875557,82.650269 112.748375,86.157967 109.038704,99.251907 
	C108.474731,101.242569 107.477074,103.110359 106.394539,104.991264 
	C105.817413,104.288170 105.525764,103.628792 105.466599,102.729965 
	C105.763336,100.636696 105.827591,98.782860 105.937775,96.640366 
	C106.006393,95.964935 106.029091,95.578171 106.306580,95.162956 
	C106.729080,95.101578 106.896790,95.068649 107.434273,94.943710 
	C108.202522,92.897850 108.601006,90.944008 109.365349,88.990097 
	C112.493927,86.995514 115.256645,85.000992 118.439575,83.005730 
	C122.332428,82.636803 126.432503,83.703674 128.226730,78.891968 
	C128.711014,78.579849 128.897797,78.320496 129.319946,77.834915 
	C130.382935,75.822723 131.457321,74.034592 131.789368,72.117851 
	C132.190262,69.803734 131.961746,67.380569 132.005646,65.004608 
z"/>
<path fill="#7B72BC" opacity="1.000000" stroke="none" 
	d="
M139.005707,69.976059 
	C141.724594,67.506813 144.578735,65.016586 148.252258,61.811447 
	C149.325455,64.786163 150.123688,66.998726 150.873444,69.536659 
	C150.824966,69.862022 150.702530,69.950943 150.536652,69.970016 
	C150.370758,69.989098 150.035538,70.028458 149.666107,70.058655 
	C147.202286,70.715385 145.107925,71.341919 142.949860,71.633682 
	C141.726517,70.872185 140.566879,70.445480 139.407227,70.018768 
	C139.407227,70.018768 139.140976,69.955070 139.005707,69.976059 
z"/>
<path fill="#91D9E1" opacity="1.000000" stroke="none" 
	d="
M138.898178,55.301987 
	C139.516846,54.444466 140.026077,53.878838 140.782532,53.162987 
	C139.932922,56.640385 138.836090,60.268009 137.382111,63.966026 
	C137.612869,61.222244 138.200806,58.408066 138.898178,55.301987 
z"/>
<path fill="#ADEAF0" opacity="1.000000" stroke="none" 
	d="
M151.850342,70.238388 
	C152.145065,70.360771 152.074081,70.767761 151.783783,70.806580 
	C151.229828,70.547249 150.966187,70.249100 150.702530,69.950943 
	C150.702530,69.950943 150.824966,69.862022 150.880310,69.913300 
	C151.142303,70.015053 151.348969,70.065529 151.850342,70.238388 
z"/>
<path fill="#91D9E1" opacity="1.000000" stroke="none" 
	d="
M136.247650,64.850174 
	C136.126129,64.603691 136.320984,64.365059 136.814346,64.104309 
	C136.966171,64.357742 136.783249,64.616356 136.247650,64.850174 
z"/>
<path fill="#DEFEFE" opacity="1.000000" stroke="none" 
	d="
M138.625687,135.930771 
	C133.621735,139.803253 127.646812,137.680954 121.866699,137.504471 
	C121.584618,137.495880 121.334648,136.435684 121.071793,135.458252 
	C126.784943,135.325684 132.496017,135.600021 138.625687,135.930771 
z"/>
<path fill="#B0E7EF" opacity="1.000000" stroke="none" 
	d="
M117.067871,125.354782 
	C120.937233,125.072075 124.874428,125.140625 128.906754,125.596680 
	C124.986244,128.461365 121.032318,128.306244 117.067871,125.354782 
z"/>
<path fill="#F5FCFC" opacity="1.000000" stroke="none" 
	d="
M96.843369,117.854355 
	C92.976974,117.884468 89.110573,117.914589 84.743622,117.546730 
	C84.818207,110.346352 84.826828,110.275360 77.769508,109.418625 
	C75.185272,109.104912 72.518723,109.425224 69.949768,109.047691 
	C68.612198,108.851128 67.405266,107.765663 66.327087,106.901573 
	C66.377937,106.125206 66.241020,105.528976 66.103897,104.540321 
	C66.129349,102.582405 66.154999,101.016922 66.472000,99.297958 
	C67.508720,98.095932 68.254066,97.047379 69.260376,95.818314 
	C69.803146,94.856300 70.084953,94.074806 70.665665,93.160324 
	C72.309166,91.035072 73.653763,89.042801 75.320869,86.940735 
	C78.086960,82.928276 80.530548,79.025604 83.236526,74.853928 
	C87.677277,73.862343 91.855637,73.139771 96.259796,72.712540 
	C96.794266,81.106888 97.102928,89.205902 97.284821,97.691422 
	C97.160042,102.222481 100.611122,99.059341 101.936104,100.770454 
	C101.911568,103.780441 101.913170,106.365395 101.519386,108.965057 
	C99.884544,109.130440 98.645088,109.281113 98.083275,109.349411 
	C97.617455,112.544655 97.230415,115.199501 96.843369,117.854355 
M78.016640,98.720177 
	C79.392189,99.234329 80.839561,100.271240 82.120300,100.095284 
	C83.123802,99.957405 84.520569,98.410698 84.688560,97.326569 
	C85.072296,94.850204 84.809799,92.273697 84.809799,89.737877 
	C84.493454,89.646988 84.177116,89.556099 83.860771,89.465210 
	C81.982956,92.308662 80.105141,95.152122 78.016640,98.720177 
z"/>
<path fill="#F4FCFD" opacity="1.000000" stroke="none" 
	d="
M106.680008,105.034981 
	C107.477074,103.110359 108.474731,101.242569 109.038704,99.251907 
	C112.748375,86.157967 119.875557,82.650269 134.649170,87.338860 
	C136.067963,88.199860 136.997757,88.718262 138.037430,89.467285 
	C138.414581,90.132812 138.681839,90.567734 139.026337,91.319016 
	C139.706253,92.742172 140.308929,93.848984 140.722519,95.253235 
	C139.710434,103.364418 138.887405,111.178154 138.064392,118.991898 
	C134.314575,119.076363 130.564774,119.160835 126.336807,118.796753 
	C125.982727,117.321098 125.994987,116.265396 126.249069,115.271523 
	C127.869049,108.934647 130.699448,102.716019 127.759315,95.698097 
	C123.704048,93.871170 122.270721,96.626068 121.638000,99.324631 
	C120.194534,105.481094 119.235001,111.751022 117.687042,118.117615 
	C108.386887,120.410782 107.435020,119.793121 106.719597,111.404007 
	C106.705963,111.244133 106.641762,111.088577 106.637726,110.565567 
	C106.552277,109.732330 106.430260,109.264526 106.456177,108.441513 
	C106.629410,107.069199 106.654709,106.052094 106.680008,105.034981 
z"/>
<path fill="#7DE1E5" opacity="1.000000" stroke="none" 
	d="
M66.139320,107.081718 
	C67.405266,107.765663 68.612198,108.851128 69.949768,109.047691 
	C72.518723,109.425224 75.185272,109.104912 77.769508,109.418625 
	C84.826828,110.275360 84.818207,110.346352 84.304993,117.537849 
	C73.922997,117.931709 63.479092,117.936470 52.583298,117.913864 
	C51.290604,116.351463 50.449799,114.816437 49.315681,113.121750 
	C49.022362,112.962105 49.006252,112.484406 49.004852,111.794983 
	C49.009056,108.405342 49.014664,105.705116 49.020271,103.004898 
	C49.346645,102.228905 49.673016,101.452919 50.261166,100.232697 
	C51.014874,99.525536 51.506802,99.262611 52.341293,98.942459 
	C53.121597,97.921196 53.559334,96.957176 53.997066,95.993149 
	C54.476135,95.406731 54.955208,94.820312 56.099556,94.113861 
	C61.628231,92.837303 65.253868,93.816246 66.180641,99.451439 
	C66.154999,101.016922 66.129349,102.582405 66.063881,104.898468 
	C66.062477,106.126602 66.100899,106.604156 66.139320,107.081718 
z"/>
<path fill="#7FE1E7" opacity="1.000000" stroke="none" 
	d="
M127.973747,95.992096 
	C130.699448,102.716019 127.869049,108.934647 126.249069,115.271523 
	C125.994987,116.265396 125.982727,117.321098 126.019829,118.654739 
	C124.084526,118.985336 121.988037,119.009384 119.450241,118.781738 
	C119.016846,118.358780 119.024765,118.187531 119.412415,117.962433 
	C120.329155,117.554314 121.231834,117.289597 121.344086,116.831299 
	C122.098198,113.752121 122.416367,110.544655 123.391411,107.546440 
	C124.670219,103.614136 126.424164,99.836342 127.973747,95.992096 
z"/>
<path fill="#53ADE3" opacity="1.000000" stroke="none" 
	d="
M138.298798,118.973358 
	C138.887405,111.178154 139.710434,103.364418 141.104065,95.332764 
	C142.465866,97.074837 143.431763,98.985939 143.998093,101.008896 
	C144.541641,102.950432 144.670944,105.007935 144.980377,107.388184 
	C144.918442,108.506386 144.858429,109.250870 144.506256,110.179123 
	C143.525513,112.593056 142.836914,114.823235 142.148315,117.053413 
	C141.331055,117.674835 140.513779,118.296265 139.349854,118.945656 
	C139.003189,118.973618 138.533234,118.954826 138.298798,118.973358 
z"/>
<path fill="#7BD9ED" opacity="1.000000" stroke="none" 
	d="
M106.308243,108.796722 
	C106.430260,109.264526 106.552277,109.732330 106.327545,110.678909 
	C104.987877,113.771011 103.994957,116.384338 103.002029,118.997673 
	C101.129501,118.818977 99.256981,118.640289 97.113907,118.157974 
	C97.230415,115.199501 97.617455,112.544655 98.083275,109.349411 
	C98.645088,109.281113 99.884544,109.130440 101.895355,108.995613 
	C103.880562,108.939880 105.094406,108.868301 106.308243,108.796722 
z"/>
<path fill="#A0D7E7" opacity="1.000000" stroke="none" 
	d="
M103.328590,119.146545 
	C103.994957,116.384338 104.987877,113.771011 106.290977,111.044342 
	C106.641762,111.088577 106.705963,111.244133 106.719597,111.404007 
	C107.435020,119.793121 108.386887,120.410782 117.926376,118.101753 
	C118.557541,117.943123 119.032677,118.016281 119.032677,118.016281 
	C119.024765,118.187531 119.016846,118.358780 119.005936,118.787567 
	C113.887001,119.128532 108.771080,119.211967 103.328590,119.146545 
z"/>
<path fill="#E8FCFE" opacity="1.000000" stroke="none" 
	d="
M69.992149,62.772079 
	C70.008606,61.387749 70.025063,60.003418 70.012848,58.311867 
	C70.477386,57.683693 70.970604,57.362740 71.772774,57.028652 
	C72.382538,58.112865 72.683342,59.210213 72.913635,60.909073 
	C72.572372,62.036366 72.301636,62.562145 71.690193,63.038635 
	C70.897041,62.916924 70.444595,62.844501 69.992149,62.772079 
z"/>
<path fill="#E8FCFE" opacity="1.000000" stroke="none" 
	d="
M77.928558,51.097897 
	C76.800133,52.057117 75.236572,52.964382 73.335205,53.933556 
	C72.776062,50.390450 75.341728,51.033710 77.928558,51.097897 
z"/>
<path fill="#E8FCFE" opacity="1.000000" stroke="none" 
	d="
M80.885910,50.904797 
	C80.460922,51.377163 79.864563,51.587132 79.059784,51.632515 
	C79.472427,51.192749 80.093483,50.917576 80.885910,50.904797 
z"/>
<path fill="#8671DF" opacity="1.000000" stroke="none" 
	d="
M76.993408,30.988914 
	C76.492691,31.000301 75.991974,31.011688 75.116089,31.058050 
	C74.240707,30.565912 73.740501,30.038799 73.395920,29.051472 
	C73.735397,27.975071 73.919250,27.358883 74.103096,26.742695 
	C74.525612,26.779415 74.948135,26.816135 75.714386,27.266743 
	C76.369873,28.783390 76.681641,29.886152 76.993408,30.988914 
z"/>
<path fill="#866DC8" opacity="1.000000" stroke="none" 
	d="
M77.191635,31.217928 
	C76.681641,29.886152 76.369873,28.783390 76.025146,27.334936 
	C76.945259,27.711649 77.898354,28.434053 79.004501,29.418713 
	C78.568321,30.269625 77.979088,30.858284 77.191635,31.217928 
z"/>
<path fill="#7B78C5" opacity="1.000000" stroke="none" 
	d="
M89.626556,27.075552 
	C89.164047,27.384024 88.363335,27.663599 87.223976,27.895000 
	C87.686333,27.580103 88.487343,27.313379 89.626556,27.075552 
z"/>
<path fill="#866DC8" opacity="1.000000" stroke="none" 
	d="
M73.865608,26.558216 
	C73.919250,27.358883 73.735397,27.975071 73.299019,28.793058 
	C73.240372,28.121153 73.434250,27.247446 73.865608,26.558216 
z"/>
<path fill="#D7B89E" opacity="1.000000" stroke="none" 
	d="
M90.124924,26.246189 
	C90.465645,26.134050 90.668137,26.302576 90.910461,26.710896 
	C90.824806,26.919456 90.648735,26.949013 90.205849,26.953854 
	C89.939034,26.929140 90.037285,26.466061 90.124924,26.246189 
z"/>
<path fill="#F5FCFC" opacity="1.000000" stroke="none" 
	d="
M144.798416,109.995361 
	C144.858429,109.250870 144.918442,108.506386 145.274902,107.198700 
	C147.403168,102.095306 149.235001,97.555099 151.104340,92.689026 
	C151.120926,91.928085 151.100021,91.493011 151.070953,91.047470 
	C151.062790,91.037003 151.077759,91.078125 151.428253,91.036514 
	C153.232651,87.779366 154.686554,84.563835 156.413559,81.121979 
	C157.215210,79.630783 157.743759,78.365906 158.461060,77.082054 
	C158.649780,77.063072 159.001343,76.920601 159.292114,76.923470 
	C160.070740,76.654961 160.558594,76.383583 161.373383,76.121895 
	C162.133896,76.089790 162.567490,76.048004 163.001068,76.006218 
	C164.750488,75.722137 166.499908,75.438065 168.843140,75.112442 
	C169.436935,75.070885 169.886185,75.051712 169.928452,75.452759 
	C170.714340,79.209572 171.457962,82.565353 172.168900,86.327095 
	C172.962234,90.937714 173.798294,95.140442 174.610153,99.347832 
	C175.037857,101.564331 175.960983,102.756607 178.298584,101.265831 
	C178.838593,101.254417 179.378601,101.243004 180.181213,101.564285 
	C180.936020,104.624786 181.428223,107.352585 181.920441,110.080391 
	C181.753403,110.324310 181.555191,110.539490 180.753998,110.809494 
	C173.924133,111.447144 178.985535,115.686943 177.893204,117.923035 
	C174.238953,117.947220 170.584717,117.971397 166.442673,117.600861 
	C165.574829,113.579529 163.193054,113.857384 160.539871,114.285683 
	C156.036697,115.012634 151.505600,115.566628 146.859833,115.828514 
	C146.088425,113.640930 145.443420,111.818146 144.798416,109.995361 
M162.758438,103.238480 
	C162.341278,100.283348 161.924118,97.328209 161.506958,94.373077 
	C161.150681,94.391243 160.794403,94.409401 160.438126,94.427567 
	C158.962173,97.776085 157.486221,101.124603 155.525620,105.572655 
	C158.572296,104.902962 160.561218,104.465775 162.758438,103.238480 
z"/>
<path fill="#7FE1E3" opacity="1.000000" stroke="none" 
	d="
M184.948303,101.099312 
	C186.073532,97.771637 187.198776,94.443970 188.686066,91.052979 
	C189.345551,93.387520 189.642960,95.785385 189.758835,98.754730 
	C190.063141,99.878647 190.548981,100.431091 191.034805,100.983536 
	C192.012527,102.092552 192.990250,103.201576 194.005524,104.634232 
	C191.297684,104.355446 188.552261,103.753036 185.409134,102.756035 
	C184.990372,101.940735 184.969330,101.520020 184.948303,101.099312 
z"/>
<path fill="#4DACE0" opacity="1.000000" stroke="none" 
	d="
M184.498077,101.075958 
	C184.969330,101.520020 184.990372,101.940735 185.046021,102.676270 
	C184.234955,105.310387 186.854370,108.784027 182.330627,110.047516 
	C181.428223,107.352585 180.936020,104.624786 180.435028,101.468811 
	C181.633469,101.044624 182.840652,101.048615 184.498077,101.075958 
z"/>
<path fill="#5BB7D4" opacity="1.000000" stroke="none" 
	d="
M178.147568,118.176697 
	C178.985535,115.686943 173.924133,111.447144 180.578339,110.942162 
	C181.264801,113.363914 181.555115,115.736572 181.872223,118.491180 
	C180.733322,118.725533 179.567627,118.577942 178.147568,118.176697 
z"/>
<path fill="#7FE1E3" opacity="1.000000" stroke="none" 
	d="
M194.062546,105.304230 
	C195.014328,105.738228 195.988434,106.519218 197.020355,107.633728 
	C196.080399,107.195236 195.082626,106.423233 194.062546,105.304230 
z"/>
<path fill="#7FE1E3" opacity="1.000000" stroke="none" 
	d="
M201.128860,112.144043 
	C201.294113,112.117386 201.553116,112.329872 201.915466,112.774445 
	C201.753418,112.798752 201.488022,112.590981 201.128860,112.144043 
z"/>
<path fill="#7FE1E3" opacity="1.000000" stroke="none" 
	d="
M200.119843,110.175423 
	C200.280792,110.146202 200.546204,110.348938 200.918579,110.781998 
	C200.758469,110.810669 200.491394,110.609024 200.119843,110.175423 
z"/>
<path fill="#82DCE9" opacity="1.000000" stroke="none" 
	d="
M191.005280,100.688782 
	C190.548981,100.431091 190.063141,99.878647 189.806122,99.149750 
	C190.348541,99.446877 190.662140,99.920448 191.005280,100.688782 
z"/>
<path fill="#7FDCE8" opacity="1.000000" stroke="none" 
	d="
M72.030899,63.087929 
	C72.301636,62.562145 72.572372,62.036366 72.975723,61.245918 
	C74.324532,65.800423 75.540733,70.619598 76.821808,76.125992 
	C76.257248,80.225662 75.627800,83.638092 74.998360,87.050529 
	C73.653763,89.042801 72.309166,91.035072 70.568573,93.086472 
	C70.172577,93.145607 69.984863,92.989769 70.032082,92.624405 
	C70.782677,89.024689 74.896263,86.461159 71.399994,81.333626 
	C69.734161,85.397774 68.134789,88.662987 67.146400,92.103722 
	C66.854256,93.120720 68.286179,94.632965 68.945854,95.938431 
	C68.963661,95.958603 68.999413,95.998825 68.999413,95.998825 
	C68.254066,97.047379 67.508720,98.095932 66.472000,99.297958 
	C65.253868,93.816246 61.628231,92.837303 56.359650,93.987160 
	C57.154541,92.246552 58.703823,90.656517 59.488819,88.751541 
	C61.792461,83.161217 63.792255,77.445679 66.336662,71.433853 
	C70.092216,72.706268 71.648087,71.287422 71.946823,67.964073 
	C72.091980,66.349220 72.010033,64.713951 72.030899,63.087929 
z"/>
<path fill="#84D9ED" opacity="1.000000" stroke="none" 
	d="
M96.033989,72.417206 
	C91.855637,73.139771 87.677277,73.862343 82.958458,74.766922 
	C82.266441,74.827835 82.114883,74.706741 81.963318,74.585648 
	C81.947426,71.071640 81.931541,67.557640 82.372040,63.558495 
	C86.867836,63.032188 90.907242,62.991024 95.006248,63.296104 
	C95.369087,64.762451 95.672333,65.882553 95.970245,67.337601 
	C95.991806,68.118523 96.018700,68.564491 96.028931,69.433823 
	C96.019516,70.710526 96.026756,71.563866 96.033989,72.417206 
z"/>
<path fill="#39C6E0" opacity="1.000000" stroke="none" 
	d="
M84.989403,58.006645 
	C84.044464,56.596840 83.099533,55.187035 81.989975,53.531616 
	C83.779350,53.182003 86.049660,52.738422 89.093582,52.134438 
	C91.236748,51.993408 92.606316,52.012794 94.125938,52.312927 
	C95.176537,53.067837 96.077080,53.542007 96.988358,54.414871 
	C97.007645,55.878517 97.016190,56.943478 96.799728,58.118103 
	C96.373611,58.489956 96.172516,58.752144 95.610718,58.968323 
	C91.829819,58.617096 88.409615,58.311871 84.989403,58.006645 
z"/>
<path fill="#162632" opacity="1.000000" stroke="none" 
	d="
M81.608055,74.669556 
	C82.114883,74.706741 82.266441,74.827835 82.696060,75.035927 
	C80.530548,79.025604 78.086960,82.928276 75.320869,86.940735 
	C75.627800,83.638092 76.257248,80.225662 76.986000,76.471886 
	C78.474472,75.671516 79.863632,75.212486 81.608055,74.669556 
z"/>
<path fill="#C4F6F6" opacity="1.000000" stroke="none" 
	d="
M94.946655,62.949856 
	C90.907242,62.991024 86.867836,63.032188 82.357010,63.114460 
	C82.055206,62.089970 82.224815,61.024380 83.167915,59.937042 
	C86.682762,59.981781 89.466316,59.794846 92.144463,60.240849 
	C93.199646,60.416573 94.019592,62.004822 94.946655,62.949856 
z"/>
<path fill="#45BED5" opacity="1.000000" stroke="none" 
	d="
M95.006248,63.296104 
	C94.019592,62.004822 93.199646,60.416573 92.144463,60.240849 
	C89.466316,59.794846 86.682762,59.981781 83.490135,59.838219 
	C83.524567,59.248821 84.010284,58.736507 84.742706,58.115417 
	C88.409615,58.311871 91.829819,58.617096 95.642265,59.263718 
	C96.356842,60.073586 96.679184,60.542057 97.002701,61.414104 
	C96.661110,63.546005 96.318336,65.274330 95.975571,67.002655 
	C95.672333,65.882553 95.369087,64.762451 95.006248,63.296104 
z"/>
<path fill="#5C67C7" opacity="1.000000" stroke="none" 
	d="
M93.975876,52.032181 
	C92.606316,52.012794 91.236748,51.993408 89.457596,51.974312 
	C88.855591,51.682060 88.663177,51.389523 88.292221,50.900978 
	C90.349503,50.835922 92.585312,50.966862 94.656609,51.508743 
	C94.320015,51.957184 94.147942,51.994682 93.975876,52.032181 
z"/>
<path fill="#93DEE1" opacity="1.000000" stroke="none" 
	d="
M146.986237,116.193314 
	C151.505600,115.566628 156.036697,115.012634 160.539871,114.285683 
	C163.193054,113.857384 165.574829,113.579529 165.984589,117.595551 
	C159.971268,117.987808 153.928223,117.990654 147.440689,117.690071 
	C146.992874,116.988869 146.989563,116.591087 146.986237,116.193314 
z"/>
<path fill="#7EDDEA" opacity="1.000000" stroke="none" 
	d="
M146.859833,115.828506 
	C146.989563,116.591087 146.992874,116.988869 147.001984,117.686249 
	C145.597458,117.707199 144.187134,117.428551 142.462555,117.101654 
	C142.836914,114.823235 143.525513,112.593056 144.506256,110.179123 
	C145.443420,111.818146 146.088425,113.640930 146.859833,115.828506 
z"/>
<path fill="#50A2F2" opacity="1.000000" stroke="none" 
	d="
M94.125938,52.312927 
	C94.147942,51.994682 94.320015,51.957184 94.747681,51.850174 
	C95.445137,51.826042 95.887009,51.871418 96.661514,51.890282 
	C99.055954,51.602211 101.117752,51.340652 103.560867,51.014469 
	C104.202896,51.770775 104.463608,52.591702 104.859802,53.708107 
	C105.004234,55.722263 105.013184,57.440945 105.126480,59.813995 
	C105.421165,60.742374 105.673981,60.934017 105.989258,61.043293 
	C105.668045,62.132839 105.346840,63.222389 104.690704,64.627876 
	C103.240364,64.294380 102.124947,63.644932 101.007858,62.601429 
	C100.752312,58.941387 104.219749,53.845203 96.977615,54.016178 
	C96.077080,53.542007 95.176537,53.067837 94.125938,52.312927 
z"/>
<path fill="#6964CD" opacity="1.000000" stroke="none" 
	d="
M100.001717,43.683235 
	C99.281265,45.978611 98.534042,47.975586 97.389038,49.987728 
	C93.267159,46.696217 96.116249,44.559143 98.661804,42.159515 
	C99.301163,42.464802 99.638054,42.924816 100.001717,43.683235 
z"/>
<path fill="#7B78C5" opacity="1.000000" stroke="none" 
	d="
M91.682510,29.009785 
	C91.839554,29.559214 91.664124,30.111057 91.245697,30.829399 
	C90.490105,30.688513 89.977524,30.381130 89.464943,30.073750 
	C90.093307,29.719900 90.721672,29.366049 91.682510,29.009785 
z"/>
<path fill="#88D9E9" opacity="1.000000" stroke="none" 
	d="
M71.690193,63.038635 
	C72.010033,64.713951 72.091980,66.349220 71.946823,67.964073 
	C71.648087,71.287422 70.092216,72.706268 66.396667,71.043304 
	C66.659065,68.600746 67.287079,66.203392 67.967834,63.439690 
	C68.461174,63.022446 68.901787,62.971554 69.667267,62.846367 
	C70.444595,62.844501 70.897041,62.916924 71.690193,63.038635 
z"/>
<path fill="#A2EEF1" opacity="1.000000" stroke="none" 
	d="
M51.998734,98.999695 
	C51.506802,99.262611 51.014874,99.525536 50.266045,99.898178 
	C49.679558,99.240959 49.349972,98.474014 49.031082,97.374435 
	C49.786743,97.029541 50.531704,97.017296 51.643608,97.339203 
	C52.006611,98.115479 52.002674,98.557587 51.998734,98.999695 
z"/>
<path fill="#7FDCE8" opacity="1.000000" stroke="none" 
	d="
M52.341297,98.942459 
	C52.002674,98.557587 52.006611,98.115479 52.016773,97.342010 
	C52.509823,96.743195 52.996647,96.475739 53.740269,96.100708 
	C53.559334,96.957176 53.121597,97.921196 52.341297,98.942459 
z"/>
<path fill="#F2DAC9" opacity="1.000000" stroke="none" 
	d="
M93.266228,24.182188 
	C92.649658,22.513092 90.473381,20.448736 94.434952,20.047661 
	C94.777893,20.014326 94.982697,20.401173 95.040100,20.612251 
	C95.894165,21.990480 96.690834,23.157631 98.005020,25.082958 
	C96.135025,24.767847 94.865021,24.553841 93.266228,24.182188 
z"/>
<path fill="#A2EEF1" opacity="1.000000" stroke="none" 
	d="
M48.682529,103.190956 
	C49.014664,105.705116 49.009056,108.405342 48.996876,111.556137 
	C45.383728,109.383820 46.745117,106.389328 48.682529,103.190956 
z"/>
<path fill="#81CFEF" opacity="1.000000" stroke="none" 
	d="
M156.140472,81.348305 
	C154.686554,84.563835 153.232651,87.779366 151.378937,90.698883 
	C150.998062,89.949898 151.017014,89.496941 151.339432,88.805099 
	C151.481598,84.343094 151.320297,80.119957 151.013016,75.609604 
	C150.589874,73.557747 150.312698,71.793098 150.035538,70.028458 
	C150.035538,70.028458 150.370758,69.989098 150.536652,69.970016 
	C150.966187,70.249100 151.229828,70.547249 151.744568,71.009392 
	C152.149048,74.092033 152.706985,75.645782 156.198730,73.679520 
	C158.478760,72.395599 161.405655,72.260437 165.286346,71.304306 
	C164.205170,73.535103 163.755142,74.463654 163.153091,75.699219 
	C162.567490,76.048004 162.133896,76.089790 161.210480,75.882645 
	C160.147537,76.062668 159.574448,76.491631 159.001343,76.920601 
	C159.001343,76.920601 158.649780,77.063072 158.059204,77.107773 
	C157.025909,78.551086 156.583191,79.949699 156.140472,81.348305 
z"/>
<path fill="#7BDBF2" opacity="1.000000" stroke="none" 
	d="
M169.886185,75.051712 
	C169.886185,75.051712 169.436935,75.070885 169.215424,75.031952 
	C169.312897,74.108742 169.370743,72.787231 169.995148,72.414276 
	C173.044998,70.592636 183.048431,74.445358 184.726273,78.016678 
	C181.699493,78.902550 178.685806,79.784584 175.116898,80.812714 
	C174.561676,80.958809 174.115967,80.900551 174.097122,80.502518 
	C173.276398,77.926186 175.898376,72.907234 169.886185,75.051712 
z"/>
<path fill="#52B8DB" opacity="1.000000" stroke="none" 
	d="
M174.115967,80.900551 
	C174.115967,80.900551 174.561676,80.958809 174.783478,80.995956 
	C175.240494,82.788513 175.475723,84.543915 175.863342,87.042694 
	C176.379929,89.847488 176.744125,91.908913 177.108322,93.970329 
	C177.454163,96.123291 177.800003,98.276245 178.222229,100.847519 
	C175.960983,102.756607 175.037857,101.564331 174.610153,99.347832 
	C173.798294,95.140442 172.962234,90.937714 172.396759,86.070694 
	C173.143539,83.905746 173.629745,82.403145 174.115967,80.900551 
z"/>
<path fill="#7BDBF2" opacity="1.000000" stroke="none" 
	d="
M177.356369,93.708321 
	C176.744125,91.908913 176.379929,89.847488 176.027435,87.387047 
	C176.560883,89.140785 177.082642,91.293549 177.356369,93.708321 
z"/>
<path fill="#7BD9ED" opacity="1.000000" stroke="none" 
	d="
M108.999496,88.990166 
	C108.601006,90.944008 108.202522,92.897850 107.413445,94.607643 
	C107.004684,93.915924 106.986519,93.468262 106.970856,92.606705 
	C106.660233,89.466919 106.347115,86.741020 106.037537,83.638626 
	C106.069092,82.510544 106.097107,81.758942 106.125122,81.007347 
	C106.750031,79.513474 107.788551,78.056763 107.926674,76.519157 
	C108.461349,70.567215 108.709145,64.589500 109.702667,58.321102 
	C110.903984,63.204060 114.265862,63.010262 117.851868,63.078651 
	C122.509827,63.167496 127.157188,63.811768 131.907379,64.610786 
	C131.961746,67.380569 132.190262,69.803734 131.789368,72.117851 
	C131.457321,74.034592 130.382935,75.822723 129.318237,77.418930 
	C127.972755,70.002281 127.970421,70.107780 120.925468,69.951782 
	C117.765839,69.881798 114.617691,69.293457 111.460045,68.939850 
	C111.024818,73.585609 113.592171,76.547577 118.129471,77.055885 
	C121.454437,77.428383 124.719551,78.335197 128.011337,79.003868 
	C126.432503,83.703674 122.332428,82.636803 118.039665,83.002823 
	C115.404243,82.622513 113.588936,82.244370 111.449959,81.798805 
	C112.384499,84.662857 106.086250,85.066551 108.999496,88.990166 
z"/>
<path fill="#43AEEE" opacity="1.000000" stroke="none" 
	d="
M106.086044,80.546356 
	C106.097107,81.758942 106.069092,82.510544 105.713058,83.608475 
	C104.586288,83.629814 103.787521,83.304817 102.966415,82.688446 
	C102.635353,81.932373 102.326637,81.467674 102.001801,80.589447 
	C100.992210,74.780251 99.998741,69.384583 99.176971,63.748684 
	C99.902290,63.337460 100.455910,63.166470 101.009529,62.995487 
	C102.124947,63.644932 103.240364,64.294380 104.681503,64.975563 
	C105.353813,70.033325 105.700394,75.059349 106.086044,80.546356 
z"/>
<path fill="#85CEF7" opacity="1.000000" stroke="none" 
	d="
M105.893188,60.824638 
	C105.673981,60.934017 105.421165,60.742374 105.147720,60.243183 
	C105.372818,60.134235 105.616982,60.330231 105.893188,60.824638 
z"/>
<path fill="#7EDDEA" opacity="1.000000" stroke="none" 
	d="
M151.066833,93.014893 
	C149.235001,97.555099 147.403168,102.095306 145.276825,106.824997 
	C144.670944,105.007935 144.541641,102.950432 143.998093,101.008896 
	C143.431763,98.985939 142.465866,97.074837 141.293121,95.035309 
	C140.308929,93.848984 139.706253,92.742172 139.379837,91.254204 
	C139.814423,89.426422 139.972763,87.979805 140.131119,86.533188 
	C139.569473,86.512917 139.007828,86.492653 138.446182,86.472389 
	C138.273300,87.393814 138.100433,88.315239 137.927551,89.236664 
	C136.997757,88.718262 136.067963,88.199860 135.043823,87.355400 
	C134.610901,85.245140 134.272324,83.460945 134.349899,81.338181 
	C136.881058,79.945374 138.996033,78.891129 141.388611,77.994019 
	C142.440659,78.460434 143.215118,78.769699 143.950562,79.425636 
	C144.261703,81.182304 144.611877,82.592300 145.020081,84.346115 
	C145.718521,86.126770 146.358963,87.563614 147.046707,89.319534 
	C147.737808,90.084145 148.381577,90.529694 149.012680,90.984634 
	C149.000000,90.994026 149.025986,90.967896 149.060181,91.296295 
	C149.751877,92.088089 150.409348,92.551491 151.066833,93.014893 
z"/>
<path fill="#7DDBED" opacity="1.000000" stroke="none" 
	d="
M128.226730,78.891968 
	C124.719551,78.335197 121.454437,77.428383 118.129471,77.055885 
	C113.592171,76.547577 111.024818,73.585609 111.460045,68.939850 
	C114.617691,69.293457 117.765839,69.881798 120.925468,69.951782 
	C127.970421,70.107780 127.972755,70.002281 129.000732,77.586014 
	C128.897797,78.320496 128.711014,78.579849 128.226730,78.891968 
z"/>
<path fill="#45BED5" opacity="1.000000" stroke="none" 
	d="
M102.017914,81.002968 
	C102.326637,81.467674 102.635353,81.932373 102.711800,82.900673 
	C102.317909,84.260635 102.156296,85.117004 101.698273,86.110992 
	C100.455841,88.179955 99.509827,90.111298 98.091248,93.007423 
	C101.749573,93.007423 103.877625,93.007423 106.246376,93.008789 
	C106.487068,93.010162 106.968353,93.020592 106.968353,93.020592 
	C106.986519,93.468262 107.004684,93.915924 107.043678,94.699661 
	C106.896790,95.068649 106.729080,95.101578 105.884041,95.100922 
	C102.608337,95.813194 100.009964,96.559052 97.411591,97.304909 
	C97.102928,89.205902 96.794266,81.106888 96.259796,72.712540 
	C96.026756,71.563866 96.019516,70.710526 96.386978,69.508743 
	C97.552032,71.402870 98.222404,73.697746 99.170151,75.871696 
	C99.948334,77.656700 101.056183,79.297981 102.017914,81.002968 
z"/>
<path fill="#6B86CE" opacity="1.000000" stroke="none" 
	d="
M143.989594,79.078972 
	C143.215118,78.769699 142.440659,78.460434 141.340210,77.670746 
	C140.656845,75.463158 140.299454,73.735985 139.942078,72.008812 
	C139.708099,71.517784 139.474121,71.026764 139.323685,70.277252 
	C140.566879,70.445480 141.726517,70.872185 142.942322,72.032051 
	C142.028717,76.323959 145.009537,77.340584 147.005188,79.418243 
	C146.937180,83.530006 146.453018,87.397072 151.035965,89.043976 
	C151.017014,89.496941 150.998062,89.949898 151.028442,90.740494 
	C151.077759,91.078125 151.062790,91.037003 150.729370,91.009636 
	C149.939285,90.977478 149.482635,90.972687 149.025986,90.967896 
	C149.025986,90.967896 149.000000,90.994026 148.905457,90.710144 
	C148.207077,89.950996 147.603226,89.475731 146.999390,89.000465 
	C146.358963,87.563614 145.718521,86.126770 145.095825,84.018143 
	C144.738892,81.923897 144.364243,80.501434 143.989594,79.078972 
z"/>
<path fill="#78E2E9" opacity="1.000000" stroke="none" 
	d="
M109.365341,88.990097 
	C106.086250,85.066551 112.384499,84.662857 111.449959,81.798805 
	C113.588936,82.244370 115.404243,82.622513 117.619461,83.003555 
	C115.256645,85.000992 112.493927,86.995514 109.365341,88.990097 
z"/>
<path fill="#0A1B32" opacity="1.000000" stroke="none" 
	d="
M97.284821,97.691422 
	C100.009964,96.559052 102.608337,95.813194 105.629250,95.129379 
	C106.029091,95.578171 106.006393,95.964935 105.634903,96.766182 
	C104.815010,98.109238 104.343903,99.037804 103.546509,99.994225 
	C102.800896,100.129860 102.381577,100.237648 101.962250,100.345428 
	C100.611122,99.059341 97.160042,102.222481 97.284821,97.691422 
z"/>
<path fill="#56A7DC" opacity="1.000000" stroke="none" 
	d="
M101.936104,100.770454 
	C102.381577,100.237648 102.800896,100.129860 103.832275,100.189453 
	C104.707596,101.227699 104.970856,102.098557 105.234116,102.969414 
	C105.525764,103.628792 105.817413,104.288170 106.394531,104.991264 
	C106.654709,106.052094 106.629410,107.069199 106.456184,108.441521 
	C105.094406,108.868301 103.880562,108.939880 102.290741,108.980911 
	C101.913170,106.365395 101.911568,103.780441 101.936104,100.770454 
z"/>
<path fill="#80D8EC" opacity="1.000000" stroke="none" 
	d="
M139.574677,72.060181 
	C140.299454,73.735985 140.656845,75.463158 141.062622,77.513611 
	C138.996033,78.891129 136.881058,79.945374 134.386276,81.000519 
	C135.033112,78.817345 135.981064,76.590904 137.123520,74.469208 
	C137.607697,73.570023 138.500305,72.890770 139.574677,72.060181 
z"/>
<path fill="#7BD9ED" opacity="1.000000" stroke="none" 
	d="
M105.466599,102.729965 
	C104.970856,102.098557 104.707596,101.227699 104.158569,100.161606 
	C104.343903,99.037804 104.815010,98.109238 105.588989,97.054855 
	C105.827591,98.782860 105.763336,100.636696 105.466599,102.729965 
z"/>
<path fill="#786ED6" opacity="1.000000" stroke="none" 
	d="
M147.004898,78.991333 
	C145.009537,77.340584 142.028717,76.323959 143.006012,72.366837 
	C145.107925,71.341919 147.202286,70.715385 149.666107,70.058655 
	C150.312698,71.793098 150.589874,73.557747 150.728241,75.803711 
	C149.394592,77.187141 148.199753,78.089241 147.004898,78.991333 
z"/>
<path fill="#71CFCF" opacity="1.000000" stroke="none" 
	d="
M78.121979,98.357880 
	C80.105141,95.152122 81.982956,92.308662 83.860771,89.465210 
	C84.177116,89.556099 84.493454,89.646988 84.809799,89.737877 
	C84.809799,92.273697 85.072296,94.850204 84.688560,97.326569 
	C84.520569,98.410698 83.123802,99.957405 82.120300,100.095284 
	C80.839561,100.271240 79.392189,99.234329 78.121979,98.357880 
z"/>
<path fill="#7FDCE8" opacity="1.000000" stroke="none" 
	d="
M70.269669,93.219452 
	C70.084953,94.074806 69.803146,94.856300 69.260376,95.818314 
	C68.999413,95.998825 68.963661,95.958603 68.972015,95.611816 
	C69.315193,94.506607 69.650024,93.748184 69.984863,92.989769 
	C69.984863,92.989769 70.172577,93.145607 70.269669,93.219452 
z"/>
<path fill="#A5DCF4" opacity="1.000000" stroke="none" 
	d="
M66.327087,106.901573 
	C66.100899,106.604156 66.062477,106.126602 66.064087,105.290894 
	C66.241020,105.528976 66.377937,106.125206 66.327087,106.901573 
z"/>
<path fill="#4BCCCD" opacity="1.000000" stroke="none" 
	d="
M119.412415,117.962433 
	C119.032677,118.016281 118.557541,117.943123 118.318207,117.958984 
	C119.235001,111.751022 120.194534,105.481094 121.638000,99.324631 
	C122.270721,96.626068 123.704048,93.871170 127.759315,95.698097 
	C126.424164,99.836342 124.670219,103.614136 123.391411,107.546440 
	C122.416367,110.544655 122.098198,113.752121 121.344086,116.831299 
	C121.231834,117.289597 120.329155,117.554314 119.412415,117.962433 
z"/>
<path fill="#82DDEE" opacity="1.000000" stroke="none" 
	d="
M138.037430,89.467285 
	C138.100433,88.315239 138.273300,87.393814 138.446182,86.472389 
	C139.007828,86.492653 139.569473,86.512917 140.131119,86.533188 
	C139.972763,87.979805 139.814423,89.426422 139.302582,90.937851 
	C138.681839,90.567734 138.414581,90.132812 138.037430,89.467285 
z"/>
<path fill="#6CCFCD" opacity="1.000000" stroke="none" 
	d="
M162.654297,103.633530 
	C160.561218,104.465775 158.572296,104.902962 155.525620,105.572655 
	C157.486221,101.124603 158.962173,97.776085 160.438126,94.427567 
	C160.794403,94.409401 161.150681,94.391243 161.506958,94.373077 
	C161.924118,97.328209 162.341278,100.283348 162.654297,103.633530 
z"/>
<path fill="#53B9D1" opacity="1.000000" stroke="none" 
	d="
M174.097122,80.502518 
	C173.629745,82.403145 173.143539,83.905746 172.429443,85.664734 
	C171.457962,82.565353 170.714340,79.209572 169.928452,75.452759 
	C175.898376,72.907234 173.276398,77.926186 174.097122,80.502518 
z"/>
<path fill="#82DCE9" opacity="1.000000" stroke="none" 
	d="
M156.413574,81.121979 
	C156.583191,79.949699 157.025909,78.551086 157.870483,77.126755 
	C157.743759,78.365906 157.215210,79.630783 156.413574,81.121979 
z"/>
<path fill="#82DCE9" opacity="1.000000" stroke="none" 
	d="
M159.292114,76.923470 
	C159.574448,76.491631 160.147537,76.062668 160.883545,75.872955 
	C160.558594,76.383583 160.070740,76.654961 159.292114,76.923470 
z"/>
<path fill="#81CFEF" opacity="1.000000" stroke="none" 
	d="
M149.060181,91.296295 
	C149.482635,90.972687 149.939285,90.977478 150.737518,91.020111 
	C151.100021,91.493011 151.120926,91.928085 151.104340,92.689026 
	C150.409348,92.551491 149.751877,92.088089 149.060181,91.296295 
z"/>
<path fill="#7CE1E5" opacity="1.000000" stroke="none" 
	d="
M70.032082,92.624405 
	C69.650024,93.748184 69.315193,94.506607 68.954208,95.591644 
	C68.286179,94.632965 66.854256,93.120720 67.146400,92.103722 
	C68.134789,88.662987 69.734161,85.397774 71.399994,81.333626 
	C74.896263,86.461159 70.782677,89.024689 70.032082,92.624405 
z"/>
<path fill="#3CBEE8" opacity="1.000000" stroke="none" 
	d="
M102.001801,80.589447 
	C101.056183,79.297981 99.948334,77.656700 99.170151,75.871696 
	C98.222404,73.697746 97.552032,71.402870 96.403625,69.085388 
	C96.018700,68.564491 95.991806,68.118523 95.970245,67.337601 
	C96.318336,65.274330 96.661110,63.546005 97.252151,61.411125 
	C97.500427,61.004574 97.999390,61.001068 98.003563,61.337051 
	C98.340248,62.444992 98.672760,63.216957 99.005272,63.988918 
	C99.998741,69.384583 100.992210,74.780251 102.001801,80.589447 
z"/>
<path fill="#42A6FA" opacity="1.000000" stroke="none" 
	d="
M99.176971,63.748684 
	C98.672760,63.216957 98.340248,62.444992 98.002495,61.001530 
	C97.673080,59.556164 97.348915,58.782299 97.024742,58.008434 
	C97.016190,56.943478 97.007645,55.878517 96.988358,54.414871 
	C104.219749,53.845203 100.752312,58.941387 101.007858,62.601425 
	C100.455910,63.166470 99.902290,63.337460 99.176971,63.748684 
z"/>
<path fill="#43AEEE" opacity="1.000000" stroke="none" 
	d="
M96.799728,58.118103 
	C97.348915,58.782299 97.673080,59.556164 97.998322,60.665550 
	C97.999390,61.001068 97.500427,61.004574 97.250977,61.007553 
	C96.679184,60.542057 96.356842,60.073586 96.002960,59.309723 
	C96.172516,58.752144 96.373611,58.489956 96.799728,58.118103 
z"/>
<path fill="#7166CD" opacity="1.000000" stroke="none" 
	d="
M147.005188,79.418243 
	C148.199753,78.089241 149.394592,77.187141 150.874222,76.090935 
	C151.320297,80.119957 151.481598,84.343094 151.339432,88.805099 
	C146.453018,87.397072 146.937180,83.530006 147.005188,79.418243 
z"/>
<path fill="#3CBEE8" opacity="1.000000" stroke="none" 
	d="
M101.994690,85.973373 
	C102.156296,85.117004 102.317909,84.260635 102.734146,83.192047 
	C103.787521,83.304817 104.586288,83.629814 105.709518,83.984970 
	C106.347115,86.741020 106.660233,89.466919 106.970856,92.606705 
	C106.968353,93.020592 106.487068,93.010162 106.093506,92.703049 
	C104.464859,90.255074 103.229767,88.114227 101.994690,85.973373 
z"/>
<path fill="#80D8EC" opacity="1.000000" stroke="none" 
	d="
M143.950562,79.425636 
	C144.364243,80.501434 144.738892,81.923897 145.037796,83.674332 
	C144.611877,82.592300 144.261703,81.182304 143.950562,79.425636 
z"/>
<path fill="#81CFEF" opacity="1.000000" stroke="none" 
	d="
M147.046707,89.319534 
	C147.603226,89.475731 148.207077,89.950996 148.918137,90.700752 
	C148.381577,90.529694 147.737808,90.084145 147.046707,89.319534 
z"/>
<path fill="#32CADC" opacity="1.000000" stroke="none" 
	d="
M101.698273,86.110992 
	C103.229767,88.114227 104.464859,90.255074 105.852814,92.701675 
	C103.877625,93.007423 101.749573,93.007423 98.091248,93.007423 
	C99.509827,90.111298 100.455841,88.179955 101.698273,86.110992 
z"/>
</svg>